<?xml version="1.0" encoding="iso-8859-1"?>
<!-- Uploaded to: SVG Repo, www.svgrepo.com, Generator: SVG Repo Mixer Tools -->
<svg height="800px" width="800px" version="1.1" id="Layer_1" xmlns="http://www.w3.org/2000/svg" xmlns:xlink="http://www.w3.org/1999/xlink" 
	 viewBox="0 0 512 512" xml:space="preserve">
<circle style="fill:#324A5E;" cx="256" cy="256" r="256"/>
<path style="fill:#2B3B4E;" d="M437.019,437.019c32.151-32.151,53.944-70.732,65.417-111.599L256,78.984
	c0,0-3.772,174.658-5.203,240.957c-27.682,25.198-95.646,86.949-95.646,85.78l106.213,106.215
	C325.082,510.609,388.396,485.641,437.019,437.019z"/>
<path style="fill:#FD8469;" d="M319.412,374.906H192.588V201.025c0-24.336,7.894-48.018,22.495-67.486L256,78.982l40.917,54.556
	c14.601,19.47,22.495,43.149,22.495,67.486V374.906z"/>
<path style="fill:#FC6F58;" d="M319.412,201.025c0-24.336-7.894-48.018-22.495-67.486L256,78.984v295.924h63.412V201.025z"/>
<circle style="fill:#E6F3FF;" cx="256" cy="216.626" r="45.08"/>
<path style="fill:#CFDBE6;" d="M301.075,216.631c0-24.895-20.182-45.077-45.075-45.077v90.152
	C280.895,261.708,301.075,241.526,301.075,216.631z"/>
<circle style="fill:#84DBFF;" cx="256" cy="216.626" r="36.426"/>
<path style="fill:#31BAFD;" d="M292.424,216.631c0-20.116-16.308-36.424-36.424-36.424v72.851
	C276.116,253.056,292.424,236.747,292.424,216.631z"/>
<path style="fill:#D83E20;" d="M205.576,405.721h-50.424v-83.403c0-23.559,19.097-42.656,42.656-42.656h7.768V405.721z"/>
<path style="fill:#C1321F;" d="M306.424,405.721h50.424v-83.403c0-23.559-19.097-42.656-42.656-42.656h-7.768V405.721z"/>
</svg>